<svg xmlns="http://www.w3.org/2000/svg" width="246.844" height="256" viewBox="0 0 246.844 256"><g transform="translate(-8.853 -8)"><path d="M11.1,21.5l164-12,48,40-184,12Zm36,44,184-8,4,176-188,8Z" transform="translate(9.748 6.501)" fill="#fff"/><path d="M96.872,13.612C43.448,17.575,21.3,19.447,19.2,20.065a14.613,14.613,0,0,0-8.779,7.824l-1.36,3-.171,81.29c-.112,59.141,0,82.2.453,84.693.795,4.016,3.68,10.08,6.965,14.443,12.011,16.2,37.221,47.978,39.093,49.338C58.573,262.922,62.541,264,68.035,264c10.309,0,173.289-10.2,176.4-11.045,4.645-1.248,7.365-3.4,9.349-7.365l1.7-3.4.171-91.487c.117-63.68,0-92.111-.453-93.589a9.819,9.819,0,0,0-3.056-4.245c-3.285-2.891-55.626-39.488-59.424-41.584-4.2-2.261-9.349-3.339-15.7-3.285-2.944.059-39.029,2.549-80.159,5.611Zm84.687,9.12c5.552.907,9.232,3,24.3,13.995,13.029,9.461,15.467,11.5,14.725,12.293-.565.507-141.108,8.891-151.194,9-8.384.059-9.632-.053-11.893-1.131-1.419-.624-7.989-5.44-14.619-10.709-9.744-7.648-12.064-9.685-11.893-10.7.395-2.832-.171-2.773,73.813-8.16,38.346-2.773,70.469-5.1,71.375-5.152A42.044,42.044,0,0,1,181.559,22.732Zm54.325,45.034a8.534,8.534,0,0,1,2.325,3.515c.795,3,.795,154.826-.053,157.823a8.592,8.592,0,0,1-5.84,5.893c-1.131.336-38.346,2.72-82.65,5.269-87.749,5.04-83.839,4.928-87.125,1.7a10.111,10.111,0,0,1-2.155-3.909c-.453-1.584-.624-24.869-.507-79.535.165-73.359.224-77.322,1.189-79.082a6.5,6.5,0,0,1,3.056-2.72c1.531-.677,21.077-1.979,81.973-5.547,43.957-2.608,81.743-4.763,84.01-4.816C233.676,66.3,234.359,66.465,235.884,67.766Z" transform="translate(0 0)"/><path d="M132.755,25.176c-9.179.565-17.563,1.189-18.581,1.36-3.627.677-7.819,6.171-6.741,8.891.171.512,2.267,1.019,6.288,1.472a51.718,51.718,0,0,1,6.624.96c.624.4.741,67.7.117,67.7-.283,0-11.787-17.227-25.605-38.24C81.033,46.248,69.587,28.974,69.363,28.856c-.171-.053-8.949.453-19.488,1.131C28.8,31.464,27.785,31.63,25.342,35.256A7.635,7.635,0,0,0,23.988,39.9v2.667l4.987.395a62.4,62.4,0,0,1,6.229.624l1.248.224v49c0,46.112-.053,48.944-.96,49.226-7.653,2.155-9.184,2.773-10.315,3.909-1.472,1.584-2.208,5.157-1.189,5.781.795.507,34.837-1.307,38.858-2.043,3.515-.677,6.688-3.173,7.595-5.947a4.213,4.213,0,0,0,.395-2.325c-.171-.107-3.509-.96-7.36-1.867a76.907,76.907,0,0,1-7.707-1.925c-.736-.453-.907-73.418-.171-73.418.224,0,11.44,17.333,24.981,38.522s25.829,39.877,27.413,41.637a22.814,22.814,0,0,0,4.992,4.3c4.869,2.491,12.747,1.813,20.789-1.76l4.08-1.867V35.315l1.3-.283c.677-.171,2.549-.512,4.08-.853,4.245-.907,5.717-1.643,6.453-3.168.683-1.589.853-7.083.229-6.971C149.635,24.094,141.928,24.606,132.755,25.176Z" transform="translate(63.535 69.502)"/></g></svg>